HIERARCHY
ROOT Hips
{
  OFFSET 5.84602e-005 68.8428 3.50346
  CHANNELS 6 Xposition Yposition Zposition Zrotation Xrotation Yrotation
  JOINT Spine
  {
    OFFSET 0 8.597 -4.6522
    CHANNELS 3 Zrotation Xrotation Yrotation
    JOINT Spine1
    {
      OFFSET 0 7.8454 0.4098
      CHANNELS 3 Zrotation Xrotation Yrotation
      JOINT Spine2
      {
        OFFSET 0 9.7078 -2.1609
        CHANNELS 3 Zrotation Xrotation Yrotation
        JOINT Neck
        {
          OFFSET 0 21.8761 -0.4549
          CHANNELS 3 Zrotation Xrotation Yrotation
          JOINT Head
          {
            OFFSET 0 12.3537 3.3602
            CHANNELS 3 Zrotation Xrotation Yrotation
            End Site
            {
              OFFSET 0.0001 18.9506 0.5657
            }
          }
        }
        JOINT LeftShoulder
        {
          OFFSET 2.2086 21.1115 7.2329
          CHANNELS 3 Zrotation Xrotation Yrotation
          JOINT LeftArm
          {
            OFFSET 13.1193 3.0282 -4.8998
            CHANNELS 3 Zrotation Xrotation Yrotation
            JOINT LeftForeArm
            {
              OFFSET 27.4081 -0.0973053 -0.2375
              CHANNELS 3 Zrotation Xrotation Yrotation
              JOINT LeftHand
              {
                OFFSET 22.8641 0.0662994 -0.1369
                CHANNELS 3 Zrotation Xrotation Yrotation
                JOINT LeftHandIndex1
                {
                  OFFSET 8.8614 0.775009 2.4612
                  CHANNELS 3 Zrotation Xrotation Yrotation
                  JOINT LeftHandIndex2
                  {
                    OFFSET 3.3146 -0.808304 0.5841
                    CHANNELS 3 Zrotation Xrotation Yrotation
                    JOINT LeftHandIndex3
                    {
                      OFFSET 2.2628 -0.552002 0.3989
                      CHANNELS 3 Zrotation Xrotation Yrotation
                      End Site
                      {
                        OFFSET 1.6102 -0.4807 0.2612
                      }
                    }
                  }
                }
                JOINT LeftHandMiddle1
                {
                  OFFSET 8.9937 0.895004 0.2143
                  CHANNELS 3 Zrotation Xrotation Yrotation
                  JOINT LeftHandMiddle2
                  {
                    OFFSET 4.0984 0.0113983 -0.0242
                    CHANNELS 3 Zrotation Xrotation Yrotation
                    JOINT LeftHandMiddle3
                    {
                      OFFSET 2.2716 0.00689697 -0.0138001
                      CHANNELS 3 Zrotation Xrotation Yrotation
                      End Site
                      {
                        OFFSET 2.0404 -0.1441 0.0027
                      }
                    }
                  }
                }
                JOINT LeftHandRing1
                {
                  OFFSET 8.5234 0.597198 -2.0164
                  CHANNELS 3 Zrotation Xrotation Yrotation
                  JOINT LeftHandRing2
                  {
                    OFFSET 3.7188 -0.188293 -0.2328
                    CHANNELS 3 Zrotation Xrotation Yrotation
                    JOINT LeftHandRing3
                    {
                      OFFSET 2.1191 -0.106598 -0.1332
                      CHANNELS 3 Zrotation Xrotation Yrotation
                      End Site
                      {
                        OFFSET 1.8737 -0.2304 -0.0886
                      }
                    }
                  }
                }
                JOINT LeftHandPinky1
                {
                  OFFSET 7.9094 -0.601089 -3.4825
                  CHANNELS 3 Zrotation Xrotation Yrotation
                  JOINT LeftHandPinky2
                  {
                    OFFSET 2.2874 -0.477005 -0.6314
                    CHANNELS 3 Zrotation Xrotation Yrotation
                    JOINT LeftHandPinky3
                    {
                      OFFSET 1.6774 -0.349396 -0.4633
                      CHANNELS 3 Zrotation Xrotation Yrotation
                      End Site
                      {
                        OFFSET 1.4888 -0.4091 -0.3416
                      }
                    }
                  }
                }
                JOINT LeftHandThumb1
                {
                  OFFSET 1.833 -1.3875 1.3896
                  CHANNELS 3 Zrotation Xrotation Yrotation
                  JOINT LeftHandThumb2
                  {
                    OFFSET 3.4129 -1.121 2.5732
                    CHANNELS 3 Zrotation Xrotation Yrotation
                    JOINT LeftHandThumb3
                    {
                      OFFSET 2.2474 -0.804199 1.6192
                      CHANNELS 3 Zrotation Xrotation Yrotation
                      End Site
                      {
                        OFFSET 1.6527 -0.5689 1.1317
                      }
                    }
                  }
                }
              }
            }
          }
        }
        JOINT RightShoulder
        {
          OFFSET -2.2086 21.1115 7.2329
          CHANNELS 3 Zrotation Xrotation Yrotation
          JOINT RightArm
          {
            OFFSET -13.1216 3.0287 -4.9007
            CHANNELS 3 Zrotation Xrotation Yrotation
            JOINT RightForeArm
            {
              OFFSET -27.4081 -0.0973053 -0.2375
              CHANNELS 3 Zrotation Xrotation Yrotation
              JOINT RightHand
              {
                OFFSET -22.8641 0.0664063 -0.1369
                CHANNELS 3 Zrotation Xrotation Yrotation
                JOINT RightHandIndex1
                {
                  OFFSET -8.8614 0.774994 2.4612
                  CHANNELS 3 Zrotation Xrotation Yrotation
                  JOINT RightHandIndex2
                  {
                    OFFSET -3.3146 -0.808304 0.5841
                    CHANNELS 3 Zrotation Xrotation Yrotation
                    JOINT RightHandIndex3
                    {
                      OFFSET -2.2628 -0.552002 0.3989
                      CHANNELS 3 Zrotation Xrotation Yrotation
                      End Site
                      {
                        OFFSET -1.6102 -0.4807 0.2612
                      }
                    }
                  }
                }
                JOINT RightHandMiddle1
                {
                  OFFSET -8.9937 0.894989 0.2143
                  CHANNELS 3 Zrotation Xrotation Yrotation
                  JOINT RightHandMiddle2
                  {
                    OFFSET -4.0984 0.0113983 -0.0242
                    CHANNELS 3 Zrotation Xrotation Yrotation
                    JOINT RightHandMiddle3
                    {
                      OFFSET -2.2716 0.00691223 -0.0138001
                      CHANNELS 3 Zrotation Xrotation Yrotation
                      End Site
                      {
                        OFFSET -2.0404 -0.1441 0.0027
                      }
                    }
                  }
                }
                JOINT RightHandRing1
                {
                  OFFSET -8.5234 0.597198 -2.0164
                  CHANNELS 3 Zrotation Xrotation Yrotation
                  JOINT RightHandRing2
                  {
                    OFFSET -3.7188 -0.188309 -0.2328
                    CHANNELS 3 Zrotation Xrotation Yrotation
                    JOINT RightHandRing3
                    {
                      OFFSET -2.1191 -0.106598 -0.1332
                      CHANNELS 3 Zrotation Xrotation Yrotation
                      End Site
                      {
                        OFFSET -1.8737 -0.2304 -0.0886
                      }
                    }
                  }
                }
                JOINT RightHandPinky1
                {
                  OFFSET -7.9094 -0.601105 -3.4825
                  CHANNELS 3 Zrotation Xrotation Yrotation
                  JOINT RightHandPinky2
                  {
                    OFFSET -2.2874 -0.477005 -0.6314
                    CHANNELS 3 Zrotation Xrotation Yrotation
                    JOINT RightHandPinky3
                    {
                      OFFSET -1.6774 -0.349396 -0.4633
                      CHANNELS 3 Zrotation Xrotation Yrotation
                      End Site
                      {
                        OFFSET -1.4888 -0.4091 -0.3416
                      }
                    }
                  }
                }
                JOINT RightHandThumb1
                {
                  OFFSET -1.833 -1.38751 1.3896
                  CHANNELS 3 Zrotation Xrotation Yrotation
                  JOINT RightHandThumb2
                  {
                    OFFSET -3.41299 -1.12099 2.5732
                    CHANNELS 3 Zrotation Xrotation Yrotation
                    JOINT RightHandThumb3
                    {
                      OFFSET -2.24741 -0.804108 1.6192
                      CHANNELS 3 Zrotation Xrotation Yrotation
                      End Site
                      {
                        OFFSET -1.6527 -0.5689 1.1317
                      }
                    }
                  }
                }
              }
            }
          }
        }
      }
    }
  }
  JOINT RightUpLeg
  {
    OFFSET -9.1966 3.8861 -0.7581
    CHANNELS 3 Zrotation Xrotation Yrotation
    JOINT RightLeg
    {
      OFFSET -0.7359 -41.0265 0
      CHANNELS 3 Zrotation Xrotation Yrotation
      JOINT RightFoot
      {
        OFFSET 0 -40.2855 0
        CHANNELS 3 Zrotation Xrotation Yrotation
        JOINT RightToeBase
        {
          OFFSET 0 -5.6122 11.7359
          CHANNELS 3 Zrotation Xrotation Yrotation
          End Site
          {
            OFFSET 0 0 7.8731
          }
        }
      }
    }
  }
  JOINT LeftUpLeg
  {
    OFFSET 9.1965 3.8864 -0.7581
    CHANNELS 3 Zrotation Xrotation Yrotation
    JOINT LeftLeg
    {
      OFFSET 0.7359 -41.0268 0
      CHANNELS 3 Zrotation Xrotation Yrotation
      JOINT LeftFoot
      {
        OFFSET 0 -40.2855 0
        CHANNELS 3 Zrotation Xrotation Yrotation
        JOINT LeftToeBase
        {
          OFFSET 0 -5.6122 11.7359
          CHANNELS 3 Zrotation Xrotation Yrotation
          End Site
          {
            OFFSET 0 0 7.8731
          }
        }
      }
    }
  }
}
MOTION
Frames:	6
Frame Time:	0.0333333
-0.0383607 69.312 13.5809 -1.13336e-014 31.6011 -180 -0.614888 5.44607 -0.214681 -1.21748 10.8941 -0.372874 -1.21748 10.8941 -0.372874 12.036 4.5309 -18.9682 11.3432 -36.5698 7.12341 -22.172 -15.6684 -34.7794 -9.00175 -22.4107 -19.2379 -15.8307 3.99022 -28.3012 -56.7092 -9.13957 3.31459 5.84179e-007 -4.01706e-007 -4.71821e-007 3.18055e-015 -7.95139e-016 -1.19271e-015 -1.16836e-006 8.03413e-007 9.43642e-007 5.84179e-007 -4.01706e-007 -4.71821e-007 -0.0146798 -8.73776e-005 -3.8862e-006 -1.16837e-006 8.03292e-007 9.43745e-007 5.84179e-007 -4.01706e-007 -4.71821e-007 -0.0187676 -0.00117509 5.80748e-005 -1.16837e-006 8.03257e-007 9.43785e-007 5.84179e-007 -4.01706e-007 -4.71821e-007 -0.0122825 -0.00325188 0.000678908 -1.16834e-006 8.03315e-007 9.43762e-007 5.84179e-007 -4.01706e-007 -4.71821e-007 3.18055e-015 -7.95139e-016 -1.19271e-015 -1.16836e-006 8.03413e-007 9.43642e-007 12.2705 -6.51566 5.74458 41.7112 -5.5449 17.6318 32.5094 8.82424 5.12027 45.1571 -2.49844 8.86652 3.14785e-008 -3.30024e-006 -2.00949e-006 1.44165e-007 1.74593e-007 -3.61219e-007 -3.23947e-008 -2.71516e-006 -1.75796e-006 3.14785e-008 -3.30024e-006 -2.00949e-006 0.0149833 -9.47154e-005 2.75388e-006 -3.38582e-007 -4.43508e-006 -2.65107e-006 3.14785e-008 -3.30024e-006 -2.00949e-006 0.0189329 -0.00118568 -5.84701e-005 -3.22173e-008 -2.71546e-006 -1.75751e-006 3.14785e-008 -3.30024e-006 -2.00949e-006 0.0122362 -0.00323855 -0.00067499 -3.23029e-008 -2.71538e-006 -1.75768e-006 3.14785e-008 -3.30024e-006 -2.00949e-006 1.44165e-007 1.74593e-007 -3.61219e-007 -3.23947e-008 -2.71516e-006 -1.75796e-006 -174.597 -29.908 176.052 -128.076 42.4723 105.064 2.79141 -4.0905 21.5198 -1.16992e-007 2.02994e-006 1.82631e-007 100.161 -25.4055 119.011 -156.767 34.7294 121.527 14.6699 34.2399 14.8817 -5.73123e-007 -1.94152e-007 -2.2863e-007 
-0.0774824 69.5676 13.5867 -1.12831e-014 31.301 -180 -0.61605 5.31078 -0.215293 -1.21987 10.6236 -0.375374 -1.21987 10.6236 -0.375374 12.0702 6.22683 -19.3319 11.2213 -36.3039 7.02691 -22.4544 -15.0995 -34.0655 -9.13896 -22.3504 -19.5029 -16.0856 4.13368 -28.7815 -56.2774 -8.99069 3.60318 -5.84224e-007 4.016e-007 4.71847e-007 -1.16845e-006 8.032e-007 9.43693e-007 -5.84224e-007 4.016e-007 4.71847e-007 -5.84224e-007 4.016e-007 4.71847e-007 -0.0146527 -8.5265e-005 2.20507e-006 -5.84231e-007 4.0154e-007 4.71898e-007 -5.84224e-007 4.016e-007 4.71847e-007 -0.0187353 -0.00118583 6.56154e-005 -5.84228e-007 4.01523e-007 4.71918e-007 -5.84224e-007 4.016e-007 4.71847e-007 -0.0122725 -0.00324687 0.000677928 -5.84214e-007 4.01551e-007 4.71906e-007 -5.84224e-007 4.016e-007 4.71847e-007 -1.16845e-006 8.032e-007 9.43693e-007 -5.84224e-007 4.016e-007 4.71847e-007 13.4 -5.88185 5.9797 41.2102 -5.68707 17.3951 31.2644 8.71649 4.90867 45.7586 -1.97415 8.95576 -2.88208e-007 -3.49251e-007 7.2247e-007 -1.44104e-007 -1.74625e-007 3.61235e-007 -2.88208e-007 -3.49251e-007 7.2247e-007 -2.88208e-007 -3.49251e-007 7.2247e-007 0.0149854 -8.65902e-005 -2.58178e-006 -2.88213e-007 -3.49156e-007 7.22516e-007 -2.88208e-007 -3.49251e-007 7.2247e-007 0.0189866 -0.00118809 -5.83737e-005 -2.88208e-007 -3.49131e-007 7.22531e-007 -2.88208e-007 -3.49251e-007 7.2247e-007 0.0122705 -0.0032468 -0.000674935 -5.94244e-007 -2.06837e-006 -1.65714e-007 -2.88208e-007 -3.49251e-007 7.2247e-007 -1.44104e-007 -1.74625e-007 3.61235e-007 -2.88208e-007 -3.49251e-007 7.2247e-007 -174.462 -29.766 176.152 -128.313 42.3458 105.208 2.95711 -4.46728 21.5895 2.67065e-007 1.82594e-006 -2.15174e-007 99.8604 -25.3819 118.821 -156.752 34.7467 121.507 15.0122 33.8792 14.4352 -1.37485e-009 -1.5139e-008 3.70212e-008 
-0.116598 69.8233 13.5927 -1.12329e-014 31.0008 -180 -0.617012 5.17556 -0.215899 -1.22188 10.3531 -0.377885 -1.22187 10.3531 -0.377885 12.1154 7.92442 -19.6984 11.1003 -36.0378 6.93137 -22.7433 -14.5343 -33.3508 -9.27579 -22.2896 -19.7677 -16.3393 4.27924 -29.2613 -55.8466 -8.8397 3.89051 -1.15865e-031 -2.78299e-015 -2.38542e-015 5.84294e-007 -4.01456e-007 -4.71867e-007 -3.18055e-015 0 -1.19271e-015 -1.15865e-031 -2.78299e-015 -2.38542e-015 -0.0146534 -8.96055e-005 -4.32629e-007 -3.18055e-015 1.11319e-014 1.03368e-014 -1.15865e-031 -2.78299e-015 -2.38542e-015 -0.0188399 -0.00117855 6.56496e-005 3.22767e-031 5.1684e-015 -3.57812e-015 -1.15865e-031 -2.78299e-015 -2.38542e-015 -0.0123007 -0.0032562 0.000677999 6.61994e-007 -8.13823e-007 1.47754e-006 -1.15865e-031 -2.78299e-015 -2.38542e-015 5.84294e-007 -4.01456e-007 -4.71867e-007 -3.18055e-015 0 -1.19271e-015 14.5251 -5.24394 6.20184 40.7086 -5.82717 17.1572 30.0201 8.61337 4.69494 46.359 -1.4491 9.03944 -1.44034e-007 -1.74662e-007 3.61257e-007 4.77083e-015 -3.18055e-015 3.18055e-015 -2.88067e-007 -3.49324e-007 7.22514e-007 -1.44034e-007 -1.74662e-007 3.61257e-007 0.0150189 -8.87511e-005 -6.53784e-007 -2.88072e-007 -3.49229e-007 7.2256e-007 -1.44034e-007 -1.74662e-007 3.61257e-007 0.0190431 -0.00119415 -5.93118e-005 -2.88067e-007 -3.49203e-007 7.22575e-007 -1.44034e-007 -1.74662e-007 3.61257e-007 0.0122491 -0.00324443 -0.000675621 -2.88049e-007 -3.49247e-007 7.2256e-007 -1.44034e-007 -1.74662e-007 3.61257e-007 4.77083e-015 -3.18055e-015 3.18055e-015 -2.88067e-007 -3.49324e-007 7.22514e-007 -174.328 -29.6235 176.251 -128.55 42.2187 105.351 3.12328 -4.84389 21.6602 -0 -3.18055e-015 -0 99.5603 -25.3572 118.631 -156.736 34.7639 121.487 15.3493 33.5165 13.9935 4.52158e-010 5.05023e-009 -1.2339e-008 
-0.155712 70.0792 13.5988 -1.1183e-014 30.7007 -180 -0.617796 5.04033 -0.216503 -1.22353 10.0827 -0.380411 -1.22353 10.0827 -0.380411 12.1712 9.62247 -20.068 10.9802 -35.7712 6.83679 -23.0385 -13.9729 -32.6354 -9.41226 -22.2281 -20.0322 -16.5917 4.42692 -29.7403 -55.4168 -8.68661 4.1765 7.67705e-008 -4.11993e-007 1.95303e-006 -1.82995e-006 1.61582e-006 -5.37385e-007 7.67706e-008 -4.11993e-007 1.95303e-006 7.67705e-008 -4.11993e-007 1.95303e-006 -0.0145544 -8.57068e-005 2.51429e-006 -5.84399e-007 4.01214e-007 4.71933e-007 7.67705e-008 -4.11993e-007 1.95303e-006 -0.0187541 -0.0011743 6.0395e-005 -5.84397e-007 4.01197e-007 4.71953e-007 7.67705e-008 -4.11993e-007 1.95303e-006 -0.0122265 -0.00324008 0.000676839 -5.84383e-007 4.01226e-007 4.71941e-007 7.67705e-008 -4.11993e-007 1.95303e-006 -1.82995e-006 1.61582e-006 -5.37385e-007 7.67706e-008 -4.11993e-007 1.95303e-006 15.6456 -4.60234 6.41098 40.2064 -5.96516 16.9179 28.7768 8.51493 4.47922 46.9582 -0.923367 9.11756 4.31863e-007 5.24107e-007 -1.08385e-006 -4.31863e-007 -5.24107e-007 1.08385e-006 4.31863e-007 5.24107e-007 -1.08385e-006 4.31863e-007 5.24107e-007 -1.08385e-006 0.0149867 -9.13069e-005 1.88956e-006 3.28179e-007 -2.9508e-006 -2.74443e-006 4.31863e-007 5.24107e-007 -1.08385e-006 0.0189769 -0.00118992 -5.6179e-005 4.31863e-007 5.23927e-007 -1.08394e-006 4.31863e-007 5.24107e-007 -1.08385e-006 0.012274 -0.00325004 -0.000673023 4.31837e-007 5.23991e-007 -1.08392e-006 4.31863e-007 5.24107e-007 -1.08385e-006 -4.31863e-007 -5.24107e-007 1.08385e-006 4.31863e-007 5.24107e-007 -1.08385e-006 -174.195 -29.4808 176.349 -128.785 42.0912 105.493 3.28995 -5.22027 21.7321 1.50028e-007 3.85569e-006 -3.22317e-008 99.2601 -25.3317 118.442 -156.72 34.7814 121.467 15.6857 33.1521 13.5566 3.97107e-009 4.45347e-007 3.83433e-008 
-0.194821 70.3353 13.605 -1.11335e-014 30.4006 -180 -0.618605 4.90517 -0.217104 -1.22525 9.81233 -0.382931 -1.22525 9.81235 -0.382931 12.2396 11.3217 -20.4419 10.861 -35.5043 6.74314 -23.34 -13.4155 -31.9191 -9.54835 -22.1661 -20.2965 -16.8429 4.57665 -30.2187 -54.988 -8.5314 4.46119 1.88757e-006 2.4482e-007 2.33807e-006 -2.33807e-006 1.6042e-006 1.88757e-006 1.75355e-006 -1.20315e-006 -1.41568e-006 1.88757e-006 2.4482e-007 2.33807e-006 -0.0146229 -8.51053e-005 4.17101e-006 1.75357e-006 -1.20297e-006 -1.41583e-006 1.88757e-006 2.4482e-007 2.33807e-006 -0.0187637 -0.00117442 6.01859e-005 1.75356e-006 -1.20291e-006 -1.41589e-006 1.88757e-006 2.4482e-007 2.33807e-006 -0.0122348 -0.00324155 0.000679475 1.75352e-006 -1.203e-006 -1.41586e-006 1.88757e-006 2.4482e-007 2.33807e-006 -2.33807e-006 1.6042e-006 1.88757e-006 1.75355e-006 -1.20315e-006 -1.41568e-006 16.7616 -3.95755 6.60713 39.7035 -6.10101 16.6775 27.5348 8.42125 4.26171 47.5565 -0.397069 9.19016 -3.07477e-007 -1.72408e-006 -8.5857e-007 1.97417e-008 1.37458e-006 1.5812e-006 -1.97417e-008 -1.37458e-006 -1.5812e-006 -3.07477e-007 -1.72408e-006 -8.5857e-007 0.0150369 -9.51453e-005 -5.91361e-008 2.8774e-007 3.49404e-007 -7.22678e-007 -3.07477e-007 -1.72408e-006 -8.5857e-007 0.0190221 -0.00118838 -5.78812e-005 2.87735e-007 3.49379e-007 -7.22693e-007 -3.07477e-007 -1.72408e-006 -8.5857e-007 0.012334 -0.00325996 -0.000679912 2.87717e-007 3.49422e-007 -7.22678e-007 -3.07477e-007 -1.72408e-006 -8.5857e-007 1.97417e-008 1.37458e-006 1.5812e-006 -1.97417e-008 -1.37458e-006 -1.5812e-006 -174.062 -29.3376 176.447 -129.02 41.9631 105.634 3.45708 -5.59636 21.8049 -2.13566e-006 3.77828e-006 -5.21287e-007 98.9603 -25.3054 118.253 -156.705 34.7989 121.446 16.0152 32.7858 13.1243 -9.23782e-009 -1.06207e-007 2.59067e-007 
-0.233925 70.5914 13.6114 -1.10842e-014 30.1005 -180 -0.619436 4.77002 -0.2177 -1.22703 9.54209 -0.385446 -1.22703 9.54209 -0.385445 12.3194 13.0197 -20.82 10.7426 -35.2371 6.65041 -23.6477 -12.8622 -31.2021 -9.68408 -22.1036 -20.5604 -17.0929 4.72843 -30.6965 -54.5603 -8.37417 4.74451 6.36111e-015 2.42517e-014 9.93923e-015 1.16934e-006 -8.01563e-007 -9.43801e-007 3.18055e-015 -4.77083e-015 4.37326e-015 6.36111e-015 2.42517e-014 9.93923e-015 -0.0145889 -8.97653e-005 -4.50183e-006 -6.36111e-015 5.56597e-015 4.37326e-015 6.36111e-015 2.42517e-014 9.93923e-015 -0.0187392 -0.00117938 6.16763e-005 9.54166e-015 -7.95139e-016 1.98785e-015 6.36111e-015 2.42517e-014 9.93923e-015 -0.0122954 -0.00326075 0.000677166 -2.97939e-031 4.77083e-015 3.57812e-015 6.36111e-015 2.42517e-014 9.93923e-015 1.16934e-006 -8.01563e-007 -9.43801e-007 3.18055e-015 -4.77083e-015 4.37326e-015 17.8731 -3.30991 6.79027 39.2001 -6.23476 16.4358 26.2945 8.33239 4.04257 48.1538 0.129672 9.25721 -2.87549e-007 -3.49605e-007 7.227e-007 -1.43775e-007 -1.74803e-007 3.6135e-007 -5.75098e-007 -6.99211e-007 1.4454e-006 -2.87549e-007 -3.49605e-007 7.227e-007 0.0149821 -8.94652e-005 -4.44943e-006 -5.75108e-007 -6.99022e-007 1.44549e-006 -2.87549e-007 -3.49605e-007 7.227e-007 0.0189752 -0.0011931 -6.22284e-005 -2.63194e-007 1.02831e-006 2.28907e-006 -2.87549e-007 -3.49605e-007 7.227e-007 0.0121843 -0.00322087 -0.000668619 -5.75063e-007 -6.99058e-007 1.44549e-006 -2.87549e-007 -3.49605e-007 7.227e-007 -1.43775e-007 -1.74803e-007 3.6135e-007 -5.75098e-007 -6.99211e-007 1.4454e-006 -173.93 -29.1942 176.543 -129.254 41.8345 105.774 3.62471 -5.97229 21.8787 -3.18383e-006 1.85201e-007 -1.87718e-006 98.6609 -25.278 118.065 -156.689 34.8165 121.426 16.3377 32.4179 12.6963 -3.16235e-006 -5.49011e-008 1.8494e-008 
